<?xml version="1.0" encoding="UTF-8"?>
<svg width="24px" height="24px" viewBox="0 0 24 24" version="1.1" xmlns="http://www.w3.org/2000/svg">
    <g stroke="none" stroke-width="1" fill="none" fill-rule="evenodd">
        <path d="M24,18.588C23.971,18.643 21.378,21.984 16.161,21.984C9.401,21.984 3.875,17.163 3.875,11.063C3.875,4.982 9.067,0 15.539,0C19.159,0 21.76,1.408 22.944,2.512L21.92,4.462C21.76,4.224 19.535,2.133 15.539,2.133C10.56,2.133 6.08,5.962 6.08,11.063C6.08,15.962 10.144,19.85 16.001,19.85C19.841,19.85 21.761,17.673 21.92,17.434L24,18.588Z M24,6.963L23.984,7.625L12.24,13.963L24,20.319L24,23.25L8.64,15.125L8.64,12.819L20.384,6.481L8.64,0.125L8.64,3.056L24,11.181L24,6.963Z" fill="currentColor"/>
    </g>
</svg> 