<?xml version="1.0" encoding="UTF-8"?>
<svg width="24px" height="24px" viewBox="0 0 24 24" version="1.1" xmlns="http://www.w3.org/2000/svg">
    <g stroke="none" stroke-width="1" fill="none" fill-rule="evenodd">
        <path d="M13.74,4.23C12.9,3.25 12.09,2.31 11.85,1.76C11.67,1.39 11.39,1 11,1C10.61,1 10.33,1.39 10.15,1.76C9.91,2.31 9.1,3.25 8.26,4.23C3.21,9.57 2,14.76 2,17.22C2,19.69 3.2,21.77 4.14,22.71C5.07,23.65 6.27,24 7.41,24C8.76,24 9.71,23.5 10.41,22.78C10.61,22.58 10.83,22.35 11,22.1C11.17,22.35 11.39,22.58 11.59,22.78C12.29,23.5 13.24,24 14.59,24C15.73,24 16.93,23.65 17.86,22.71C18.8,21.77 20,19.69 20,17.22C20,14.76 18.79,9.57 13.74,4.23M17.71,21.29C17.06,21.94 16.17,22.17 15.3,22.17C14.47,22.17 13.38,21.8 12.89,21.3C12.4,20.8 11.85,20.3 11,20.3C10.15,20.3 9.62,20.8 9.13,21.3C8.64,21.8 7.53,22.17 6.7,22.17C5.83,22.17 4.94,21.94 4.29,21.29C3.64,20.64 3,19.11 3,17.22C3,15.33 3.83,11.28 8.29,6.54C9,5.77 10.15,4.4 11,3.5C11.85,4.4 13,5.77 13.71,6.54C18.17,11.28 19,15.33 19,17.22C19,19.11 18.36,20.64 17.71,21.29Z" fill="currentColor"/>
    </g>
</svg> 