<?xml version="1.0" encoding="UTF-8"?>
<svg width="24px" height="24px" viewBox="0 0 24 24" version="1.1" xmlns="http://www.w3.org/2000/svg">
    <g stroke="none" stroke-width="1" fill="none" fill-rule="evenodd">
        <path d="M11.5725 0c-.1763 0-.3098.0013-.3584.0067-.0516.0053-.2159.021-.3636.0328-3.4088.3073-6.6017 2.1463-8.624 4.9728C1.1004 6.584.3802 8.3666.1082 10.255c-.0962.659-.108.8537-.108 1.7474s.012 1.0884.108 1.7476c.652 4.506 3.8591 8.2919 8.2087 9.6945.7789.2511 1.6.4223 2.5337.5255.3636.04 1.9354.04 2.299 0 1.6117-.1783 2.9772-.577 4.3237-1.2643.2065-.1056.2464-.1337.2183-.1573-.0188-.0139-.8987-1.1938-1.9543-2.62l-1.919-2.592-2.4047-3.5583c-1.3231-1.9564-2.4117-3.556-2.4211-3.556-.0094-.0026-.0187 1.5787-.0235 3.509-.0067 3.3802-.0093 3.5162-.0516 3.596-.061.115-.108.1618-.2064.2134-.075.0374-.1408.0445-.495.0445h-.406l-.1078-.068a.4383.4383 0 01-.1572-.1712l-.0493-.1056.0053-4.703.0067-4.7054.0726-.0915c.0376-.0493.1408-.1177.2212-.1524.1266-.0524.1756-.0557.7395-.0557h.6047l.1078.0636a.4876.4876 0 01.1572.1627l.0493.1043.0053 1.8652c.0026.9741.0187 1.8652.035 1.8652.0163 0 .0517-.0405.0841-.0878.0726-.1016 1.1544-1.8527 2.4117-3.8874 1.0726-1.7476 1.95-3.1852 1.9637-3.1852.0136 0 .0244.0025.0244.0067.0136.0495 1.9824 3.1986 2.0668 3.3274l.0517.0878.4892-.0067c.4892-.0067.6377-.0202.7477-.0809.0656-.0374.1172-.0923.1442-.1596l.0376-.0915-.0094-.0878c-.0067-.0878-4.1533-6.7132-4.2495-6.8415-.0282-.0374-.0961-.0915-.1501-.1204-.0867-.0405-.1096-.0428-.4988-.0428-.3947 0-.4078.0026-.4892.0445-.075.0374-.1408.0979-.1995.1755-.0244.0336-1.2272 1.9803-2.6743 4.3238-1.4471 2.3434-2.6403 4.2681-2.6526 4.2774-.0136.0067-.0244-1.9098-.0244-4.2627 0-4.0767-.0025-4.2814-.0493-4.3604a.4967.4967 0 00-.1631-.1833c-.0961-.0557-.1078-.0584-.5337-.0584-.4185 0-.4362.0026-.5174.0584a.6843.6843 0 00-.1631.1833c-.0493.0809-.0493.2754-.0493 7.6416 0 7.3674 0 7.5619.0493 7.6429.0282.0473.0914.1124.1408.1461.0753.0473.1019.0519.5011.0519.3991 0 .4267-.0053.502-.0519.0493-.0336.1125-.0988.1408-.1461.0493-.081.0493-.2755.0493-3.6653v-3.5842l.108.178c.108.1779 4.0602 6.5394 4.1239 6.6339.0244.0404.0914.0988.1501.1326.0867.0519.1019.0519.5011.0519.3947 0 .4185-.0026.4988-.0445.0914-.0473.2496-.178.2402-.1997-.0025-.0053-.0914-.1461-.1995-.3123-.9591-1.5193-3.9353-6.3194-3.9353-6.3397 0-.0067.8845-1.3505 1.9637-2.987 1.0791-1.6364 2.6201-3.9777 3.4243-5.2023l1.4631-2.2275-.0067-.081c-.0136-.1326-.1149-.2484-.2552-.2916-.0961-.0282-.1995-.0282-.5011-.0202zM17.0531 14.4856c-.0914.0202-.1995.0776-.2627.1394-.0914.0915-4.0251 6.4439-4.0521 6.5192-.0136.0404.0025.1124.0376.178.0914.1833-.0914.1725 2.2871.1725h2.0857l.1019-.0557a.4195.4195 0 00.1631-.178c.0244-.0607.0323-.2133.0323-.5917 0-.4439-.0053-.5228-.0493-.6012-.0244-.0473-.0914-.1124-.1408-.1461l-.0914-.0607-1.2598-.0067-1.2598-.0067.9425-1.5193c.5174-.8355 1.4146-2.2814 1.9918-3.2127l1.0467-1.6953-.0094-.0878c-.0136-.1326-.1149-.2484-.2552-.2916-.0961-.0282-.1995-.0282-.5082-.0202z" fill="currentColor"/>
    </g>
</svg> 