<?xml version="1.0" encoding="UTF-8"?>
<svg width="24px" height="24px" viewBox="0 0 24 24" version="1.1" xmlns="http://www.w3.org/2000/svg">
    <g stroke="none" stroke-width="1" fill="none" fill-rule="evenodd">
        <path d="M12,2C6.477,2 2,6.477 2,12C2,17.523 6.477,22 12,22C17.523,22 22,17.523 22,12C22,6.477 17.523,2 12,2M12,4C16.418,4 20,7.582 20,12C20,16.418 16.418,20 12,20C7.582,20 4,16.418 4,12C4,7.582 7.582,4 12,4M9,7V17H11V13H13C14.657,13 16,11.657 16,10C16,8.343 14.657,7 13,7H9M11,9H13C13.552,9 14,9.448 14,10C14,10.552 13.552,11 13,11H11V9" fill="currentColor"/>
    </g>
</svg> 