<?xml version="1.0" encoding="UTF-8"?>
<svg width="24px" height="24px" viewBox="0 0 24 24" version="1.1" xmlns="http://www.w3.org/2000/svg">
    <g stroke="none" stroke-width="1" fill="none" fill-rule="evenodd">
        <path d="M12,2C6.48,2 2,6.48 2,12C2,17.52 6.48,22 12,22C17.52,22 22,17.52 22,12C22,6.48 17.52,2 12,2ZM12,5C15.87,5 19,6.34 19,8C19,9.66 15.87,11 12,11C8.13,11 5,9.66 5,8C5,6.34 8.13,5 12,5ZM5,14V12C5,13.66 8.13,15 12,15C15.87,15 19,13.66 19,12V14C19,15.66 15.87,17 12,17C8.13,17 5,15.66 5,14ZM5,18V16C5,17.66 8.13,19 12,19C15.87,19 19,17.66 19,16V18C19,19.66 15.87,21 12,21C8.13,21 5,19.66 5,18Z" fill="currentColor"/>
    </g>
</svg>